# xmcd
#
# Track frame offsets: 
#        150
#        31280
#        48782
#        62622
#        86580
#        99135
#        116627
#        131905
#        145775
#
# Disc length: 2262 seconds
#
# Revision: 3
# Processed by: cddbd v1.5.2PL0 Copyright (c) Steve Scherf et al.
# Submitted via: ExactAudioCopy v1.0b1
#
DISCID=7008d409
DTITLE=John Lee Hooker - The Real Folk Blues
DYEAR=1966
DGENRE=Blues
TTITLE0=Let's Go Out Tonight
TTITLE1=Peace Lovin' Man
TTITLE2=Stella Mae
TTITLE3=I Put My Trust In You
TTITLE4=I'm In The Mood
TTITLE5=You Know, I Know
TTITLE6=I'll Never Trust Your Love Again
TTITLE7=One Bourbon, One Scotch, One Beer
TTITLE8=The Waterfront
EXTD=
EXTT0=
EXTT1=
EXTT2=
EXTT3=
EXTT4=
EXTT5=
EXTT6=
EXTT7=
EXTT8=
PLAYORDER=
